<svg aria-hidden="true" style="position: absolute; width: 0; height: 0; overflow: hidden;" version="1.1" xmlns="http://www.w3.org/2000/svg" xmlns:xlink="http://www.w3.org/1999/xlink">
<defs>
<symbol id="icon-star" viewBox="0 0 32 32">
<path d="M31.881 12.557c-0.277-0.799-0.988-1.384-1.844-1.511l-8.326-1.238-3.619-7.514c-0.381-0.789-1.196-1.294-2.092-1.294s-1.711 0.505-2.092 1.294l-3.619 7.514-8.327 1.238c-0.855 0.127-1.566 0.712-1.842 1.511-0.275 0.801-0.067 1.683 0.537 2.285l6.102 6.092-1.415 8.451c-0.144 0.851 0.225 1.705 0.948 2.203 0.397 0.273 0.864 0.412 1.331 0.412 0.384 0 0.769-0.094 1.118-0.281l7.259-3.908 7.26 3.908c0.349 0.187 0.734 0.281 1.117 0.281 0.467 0 0.934-0.139 1.332-0.412 0.723-0.498 1.090-1.352 0.947-2.203l-1.416-8.451 6.104-6.092c0.603-0.603 0.81-1.485 0.537-2.285zM23.588 19.363c-0.512 0.51-0.744 1.229-0.627 1.934l1.416 8.451-7.26-3.906c-0.348-0.188-0.732-0.281-1.118-0.281-0.384 0-0.769 0.094-1.117 0.281l-7.26 3.906 1.416-8.451c0.118-0.705-0.114-1.424-0.626-1.934l-6.102-6.092 8.326-1.24c0.761-0.113 1.416-0.589 1.743-1.268l3.621-7.512 3.62 7.513c0.328 0.679 0.982 1.154 1.742 1.268l8.328 1.24-6.102 6.091z"></path>
</symbol>
<symbol id="icon-heart" viewBox="0 0 24 24">
<path d="M20.133 5.317c0.88 0.881 1.319 2.031 1.319 3.184s-0.44 2.303-1.319 3.182l-8.133 8.133-8.133-8.133c-0.879-0.879-1.318-2.029-1.318-3.183s0.439-2.304 1.318-3.183 2.029-1.318 3.183-1.318 2.304 0.439 3.183 1.318l1.060 1.060c0.391 0.391 1.024 0.391 1.414 0l1.062-1.062c0.879-0.879 2.029-1.318 3.182-1.317s2.303 0.44 3.182 1.319zM21.547 3.903c-1.269-1.269-2.934-1.904-4.596-1.905s-3.327 0.634-4.597 1.903l-0.354 0.355-0.353-0.353c-1.269-1.269-2.935-1.904-4.597-1.904s-3.328 0.635-4.597 1.904-1.904 2.935-1.904 4.597 0.635 3.328 1.904 4.597l8.84 8.84c0.391 0.391 1.024 0.391 1.414 0l8.84-8.84c1.269-1.269 1.904-2.934 1.905-4.596s-0.634-3.327-1.905-4.598z"></path>
</symbol>
<symbol id="icon-scissors" viewBox="0 0 32 32">
<path d="M21.938 0.138c-0.175 0.125-0.581 0.931-3.069 6.138-1.575 3.3-2.875 6-2.881 6.013-0.012 0.006-1.3-2.656-2.862-5.925-2.081-4.356-2.887-5.975-3.019-6.088-0.206-0.175-0.575-0.2-0.85-0.063-0.287 0.15-0.7 0.65-0.912 1.119-0.55 1.206-0.644 2.781-0.256 4.388 0.206 0.838 0.387 1.287 1.512 3.65 0.813 1.719 0.956 1.969 1.113 2.037 0.313 0.131 0.662-0.088 0.662-0.419 0-0.044-0.463-1.044-1.025-2.231-1.031-2.188-1.262-2.769-1.444-3.644-0.125-0.631-0.125-1.9 0-2.5 0.144-0.675 0.569-1.538 0.694-1.413 0.081 0.081 8.213 17.125 8.188 17.163-0.044 0.069-2.281 1.169-2.306 1.137-0.019-0.019-0.75-1.55-1.637-3.406-0.881-1.856-1.65-3.425-1.7-3.488-0.238-0.262-0.769-0.044-0.769 0.313 0 0.1 0.438 1.088 0.975 2.206 1.294 2.706 1.181 2.369 0.931 2.731-0.113 0.163-0.319 0.363-0.463 0.444-0.256 0.144-0.275 0.144-1.588 0.1-1.094-0.031-1.431-0.019-1.912 0.063-1.519 0.269-2.844 0.95-4 2.069-1.056 1.025-1.825 2.225-2.281 3.6-0.319 0.956-0.431 1.681-0.4 2.619 0.025 0.681 0.056 0.85 0.225 1.306 0.7 1.863 2.406 3.288 4.469 3.725 0.625 0.137 1.669 0.119 2.269-0.031 1.475-0.375 2.669-1.406 3.512-3.050 0.206-0.406 0.931-1.9 1.606-3.325 0.681-1.425 1.238-2.6 1.25-2.613 0.006-0.006 0.681 1.387 1.494 3.094 0.819 1.712 1.613 3.313 1.762 3.563 0.556 0.894 1.5 1.756 2.35 2.137 0.719 0.331 1.125 0.406 2.050 0.406 0.931-0.006 1.425-0.106 2.256-0.462 1.625-0.694 3.031-2.275 3.4-3.825 0.256-1.1 0.025-2.762-0.594-4.181-1.125-2.6-3.413-4.488-5.981-4.938-0.506-0.094-1.688-0.106-2.55-0.038-0.587 0.050-0.644 0.044-0.906-0.094-0.288-0.15-0.663-0.575-0.725-0.825-0.025-0.1 0.269-0.775 1-2.344 0.569-1.213 1.038-2.269 1.038-2.344 0-0.356-0.55-0.544-0.794-0.275-0.069 0.081-0.5 0.95-0.962 1.938-0.462 0.994-0.85 1.8-0.869 1.8-0.019-0.006-0.35-0.675-0.738-1.488l-0.706-1.481 2.956-6.169c1.625-3.4 2.969-6.175 2.988-6.175 0.087 0 0.444 0.7 0.575 1.125 0.125 0.413 0.144 0.594 0.144 1.563 0 1.662-0.087 1.944-1.631 5.175-0.569 1.188-0.962 2.094-0.962 2.206 0 0.369 0.456 0.569 0.738 0.319 0.144-0.125 2.113-4.256 2.356-4.95 0.788-2.225 0.606-4.688-0.45-5.987-0.244-0.3-0.613-0.512-0.881-0.512-0.1 0-0.275 0.063-0.387 0.138zM14.644 19.944c0.356 0.738 0.681 1.425 0.725 1.531 0.075 0.188 0.025 0.306-1.556 3.625-0.9 1.887-1.769 3.625-1.925 3.869-0.631 0.95-1.575 1.65-2.519 1.875-0.569 0.131-1.494 0.119-2.069-0.025-1.625-0.419-3.006-1.619-3.569-3.106-0.2-0.531-0.194-1.938 0.006-2.7 0.794-2.95 2.969-5.1 5.675-5.613 0.469-0.087 0.775-0.094 1.9-0.056 1.281 0.038 1.363 0.038 1.7-0.094 0.2-0.075 0.494-0.256 0.656-0.406 0.162-0.144 0.306-0.262 0.319-0.25 0.012 0.006 0.306 0.619 0.656 1.35zM18.831 19.275c0.419 0.212 0.85 0.25 1.813 0.156 1.706-0.163 3.169 0.206 4.519 1.137 1.938 1.337 3.275 3.813 3.275 6.050 0 1.106-0.381 1.95-1.281 2.856-0.669 0.669-1.294 1.063-2.156 1.35-0.531 0.175-0.675 0.194-1.344 0.2-0.85 0.006-1.225-0.081-1.938-0.45-0.519-0.269-1.387-1.106-1.706-1.65-0.225-0.381-4.075-8.412-4.075-8.5 0-0.050 2.419-1.294 2.531-1.294 0.038-0.006 0.2 0.063 0.363 0.144z"></path>
<path d="M9.244 21.156c-1.431 0.35-2.669 1.512-3.612 3.394-0.494 0.988-0.612 1.7-0.412 2.481 0.287 1.094 1.163 1.919 2.325 2.194 1.225 0.288 2.519-0.288 3.344-1.5 0.275-0.4 2.131-4.206 2.237-4.587 0.206-0.75-0.194-1.444-1.012-1.75-0.838-0.313-2.106-0.413-2.869-0.231zM11.188 22.094c0.75 0.175 1.063 0.363 1.063 0.637 0 0.175-1.738 3.831-2.075 4.375-0.3 0.469-0.694 0.831-1.169 1.063-0.294 0.144-0.431 0.175-0.85 0.175-0.425 0-0.556-0.025-0.869-0.181-0.944-0.462-1.412-1.475-1.131-2.444 0.237-0.819 0.95-1.969 1.65-2.656 0.494-0.488 1.025-0.806 1.606-0.969 0.412-0.113 1.281-0.113 1.775 0z"></path>
<path d="M21.156 21.163c-0.556 0.081-1.313 0.313-1.606 0.488-0.181 0.106-0.413 0.319-0.519 0.462-0.169 0.244-0.188 0.319-0.188 0.719l0.006 0.45 0.988 2.063c0.994 2.069 1.212 2.462 1.631 2.95 0.275 0.319 0.956 0.781 1.375 0.925 0.419 0.15 1.206 0.194 1.65 0.094 0.844-0.188 1.656-0.813 2.031-1.575 0.538-1.069 0.444-2.044-0.337-3.45-0.906-1.637-2.044-2.663-3.344-3.006-0.381-0.1-1.344-0.169-1.688-0.119zM22.756 22.244c1.038 0.325 2.012 1.3 2.744 2.756 0.163 0.325 0.331 0.744 0.375 0.931 0.3 1.269-0.7 2.506-2.031 2.506-0.25 0-0.531-0.050-0.75-0.131-0.387-0.144-0.931-0.606-1.231-1.044-0.275-0.4-2.113-4.256-2.113-4.438 0-0.294 0.481-0.55 1.344-0.7 0.45-0.081 1.188-0.025 1.663 0.119z"></path>
<path d="M15.6 16.756c-0.338 0.262-0.15 0.869 0.269 0.869 0.456 0 0.644-0.55 0.294-0.85-0.206-0.181-0.344-0.188-0.563-0.019z"></path>
</symbol>
<symbol id="icon-trophy" viewBox="0 0 32 32">
<path d="M5.625 0.069c-0.256 0.1-0.5 0.375-0.569 0.637-0.044 0.156-0.050 0.5-0.019 0.925l0.044 0.681h-2.181c-2.462 0-2.481 0.006-2.763 0.475-0.138 0.237-0.144 0.275-0.106 1.244 0.119 3.25 0.8 6.069 2.069 8.613 1.906 3.806 4.731 6.144 7.919 6.537l0.481 0.056 0.544 0.512c0.294 0.281 0.762 0.669 1.031 0.856l0.488 0.344v4.175h-1.044c-0.719 0-1.156 0.031-1.394 0.094-1.188 0.313-2.156 1.275-2.469 2.444-0.063 0.225-0.112 0.775-0.138 1.413l-0.037 1.038-0.219 0.044c-0.281 0.050-0.606 0.369-0.688 0.675-0.119 0.425 0.119 0.913 0.525 1.081 0.313 0.131 17.488 0.131 17.8 0 0.406-0.169 0.644-0.656 0.525-1.081-0.081-0.306-0.406-0.625-0.688-0.675l-0.219-0.044-0.038-1.038c-0.025-0.637-0.075-1.188-0.137-1.413-0.313-1.169-1.281-2.131-2.469-2.444-0.238-0.063-0.675-0.094-1.387-0.094h-1.050v-4.175l0.488-0.344c0.269-0.188 0.738-0.575 1.031-0.856l0.544-0.512 0.481-0.056c3.188-0.394 6.012-2.731 7.919-6.537 1.269-2.544 1.95-5.362 2.069-8.613 0.038-0.969 0.031-1.006-0.106-1.244-0.281-0.469-0.3-0.475-2.75-0.475h-2.175l0.012-0.837c0.019-0.919-0.012-1.012-0.413-1.313-0.169-0.131-0.175-0.131-10.463-0.144-6.738-0.006-10.35 0.013-10.45 0.050zM25.038 2.888c-0.238 5.781-1.95 11.356-4.462 14.506-2.563 3.225-5.706 3.544-8.387 0.856-2.906-2.906-4.963-8.956-5.225-15.363l-0.044-1.012h18.163l-0.044 1.012zM5.2 4.719c0.306 3.263 1.013 6.387 2.050 9 0.331 0.838 0.994 2.231 1.344 2.825 0.125 0.219 0.206 0.394 0.175 0.394-0.025 0-0.306-0.131-0.619-0.288-3.263-1.637-5.806-6.387-6.181-11.525-0.019-0.294-0.050-0.625-0.069-0.737l-0.031-0.2 1.644 0.013 1.644 0.019 0.044 0.5zM30.1 4.388c-0.019 0.112-0.050 0.444-0.069 0.737-0.331 4.531-2.344 8.787-5.15 10.894-0.4 0.3-1.512 0.919-1.65 0.919-0.031 0 0.050-0.175 0.175-0.394 0.35-0.594 1.012-1.988 1.344-2.825 1.019-2.581 1.794-5.963 2.038-8.906 0.019-0.294 0.050-0.55 0.069-0.581 0.012-0.025 0.756-0.044 1.65-0.044h1.625l-0.031 0.2zM15 21.875c0.156 0.031 0.606 0.063 1 0.063s0.844-0.031 1-0.063c0.156-0.038 0.344-0.075 0.425-0.094l0.137-0.031v3.375h-3.125v-3.375l0.144 0.031c0.075 0.019 0.262 0.056 0.419 0.094zM21.719 27.137c0.281 0.156 0.6 0.488 0.725 0.769 0.094 0.206 0.119 0.419 0.119 1.231v0.988h-13.125v-0.988c0-1.175 0.063-1.356 0.575-1.813 0.369-0.331 0.231-0.325 6.081-0.306 4.938 0.012 5.456 0.025 5.625 0.119z"></path>
</symbol>
</defs>
</svg>